<?xml version="1.0" encoding="UTF-8"?>
<svg width="15" height="15" viewBox="0 0 15 15" fill="none"
    xmlns="http://www.w3.org/2000/svg">
    <g clip-path="url(#clip0_405:85)">
        <path d="M10.3878 0H1.68799C0.755693 0 -8.45441e-05 0.73873 -8.45441e-05 1.65V9.73571C-0.00143316 9.88908 0.0335848 10.0407 0.102223 10.1786C0.467608 10.8929 1.92915 13.225 6.03607 15C10.1649 13.2143 11.6082 10.9 11.9736 10.1786C12.0422 10.0407 12.0772 9.88908 12.0759 9.73571V1.65C12.0759 1.21239 11.898 0.792709 11.5814 0.483274C11.2649 0.173839 10.8355 0 10.3878 0ZM7.67299 9.64286C7.13241 9.73441 6.5847 9.77982 6.03607 9.77857C5.496 9.77788 4.95696 9.73248 4.42472 9.64286C4.61229 8.59286 4.79985 7.54286 4.98741 6.49286C4.56931 6.18078 4.32353 5.69635 4.32241 5.18214C4.31695 4.3996 4.86656 3.71764 5.6462 3.53962C6.42583 3.36159 7.22767 3.73496 7.57747 4.43888C7.92727 5.1428 7.73179 5.98966 7.10665 6.47857C7.30761 7.52143 7.48299 8.57143 7.67299 9.64286Z" fill="white"/>
    </g>
    <defs>
        <clipPath id="clip0_405:85">
            <rect width="114" height="15" fill="white"/>
        </clipPath>
    </defs>
</svg>
